<svg xmlns="http://www.w3.org/2000/svg" width="884.4" height="884.4"><style>.st0{fill:none;stroke:#535461;stroke-width:2;stroke-miterlimit:10}.st1{fill:#ea7d5b}.st4{fill:#555388}.st5{fill:#603556}.st6{opacity:.1;enable-background:new}.st8{fill:#535461}.st9{fill:#e2e2ec}.st10,.st11{fill:none;stroke-width:2;stroke-miterlimit:10}.st10{opacity:.1;stroke:#000;enable-background:new}.st11{stroke:#e2e2ec}.st12{fill:#c87486}.st14{fill:#dfe5ee}</style><path class="st0" d="M137.6 667s-66.7-110.5-48-209.7c7.9-41.6 2.8-84.7-15.9-122.7-8.9-18-19.4-35.2-31.4-51.3"/><path class="st1" d="M53.8 220.8c3.9 14.7-11.6 64.2-11.6 64.2S4.5 249.4.7 234.7C-3.2 220 5.6 205 20.3 201.1s29.7 5 33.5 19.7zm65.3 69.8c-4.7 14.4-44.6 47.6-44.6 47.6s-12.4-50.4-7.6-64.8c4.5-14.5 20-22.5 34.4-18 14.5 4.5 22.5 20 18 34.4 0 .3-.1.5-.2.8zM153.7 430c-11.4 10-62.6 18.6-62.6 18.6s14.8-49.7 26.1-59.8c11.5-9.9 28.9-8.6 38.8 2.9 9.7 11.4 8.7 28.3-2.3 38.3zm2.4 111.4c-9.5 11.8-58.5 28.9-58.5 28.9s6.2-51.5 15.7-63.3c9.6-11.8 26.9-13.6 38.7-4 11.6 9.5 13.4 26.6 4.1 38.4zM19.5 355.7c13.2 7.5 65 5.2 65 5.2s-24.8-45.6-38-53c-13-7.8-29.9-3.6-37.7 9.5-7.8 13-3.6 29.9 9.5 37.7.3.2.7.4 1.2.6zm4.4 130.2c14.8 3.2 63.6-14.5 63.6-14.5s-37.3-36.1-52.1-39.2C20.6 429 6 438.5 2.8 453.3c-3.2 14.9 6.3 29.5 21.1 32.6zm21.7 126c14.1 5.6 65.2-3.6 65.2-3.6S80.1 566.5 66 560.9c-14.3-5.1-30 2.3-35.1 16.6-4.9 13.5 1.5 28.6 14.7 34.4zm8.2-391.1c3.9 14.7-11.6 64.2-11.6 64.2S4.5 249.4.7 234.7C-3.2 220 5.6 205 20.3 201.1s29.7 5 33.5 19.7zm65.3 69.8c-4.7 14.4-44.6 47.6-44.6 47.6s-12.4-50.4-7.6-64.8c4.5-14.5 20-22.5 34.4-18 14.5 4.5 22.5 20 18 34.4 0 .3-.1.5-.2.8z"/><path d="M153.7 430c-11.4 10-62.6 18.6-62.6 18.6s14.8-49.7 26.1-59.8c11.5-9.9 28.9-8.6 38.8 2.9 9.7 11.4 8.7 28.3-2.3 38.3zm2.4 111.4c-9.5 11.8-58.5 28.9-58.5 28.9s6.2-51.5 15.7-63.3c9.6-11.8 26.9-13.6 38.7-4 11.6 9.5 13.4 26.6 4.1 38.4z" fill="#fc6681"/><path class="st1" d="M19.5 355.7c13.2 7.5 65 5.2 65 5.2s-24.8-45.6-38-53c-13-7.8-29.9-3.6-37.7 9.5-7.8 13-3.6 29.9 9.5 37.7.3.2.7.4 1.2.6zm4.4 130.2c14.8 3.2 63.6-14.5 63.6-14.5s-37.3-36.1-52.1-39.2C20.6 429 6 438.5 2.8 453.3c-3.2 14.9 6.3 29.5 21.1 32.6zm21.7 126c14.1 5.6 65.2-3.6 65.2-3.6S80.1 566.5 66 560.9c-14.3-5.1-30 2.3-35.1 16.6-4.9 13.5 1.5 28.6 14.7 34.4z"/><linearGradient id="SVGID_1_" gradientUnits="userSpaceOnUse" x1="891.91" y1="940.843" x2="891.91" y2="486.016" gradientTransform="translate(-111.66 -256.516)"><stop offset="0" stop-color="gray" stop-opacity=".25"/><stop offset=".54" stop-color="gray" stop-opacity=".12"/><stop offset="1" stop-color="gray" stop-opacity=".1"/></linearGradient><path d="M884.5 651.3s-.8-1.1-1.9-2.3l.3-.1s-14.3-35.7-11.1-50.8l-12.7-51.5s-23.4-47.9-12.3-86.2c1.3-4.5 2.2-9.1 2.9-13.7 3.3-22.7 2.1-27.3-3.4-35.6l-.6-.9c.7-.7 1.2-1.5 1.6-2.4 4.8-12.7-22.2-35.7-15-57.1 6.6-19.9-10.6-60.8-13.2-66.7l-.3-.7-.9.3c.1-5.1 2.2-10 5.7-13.7l.2-.2c2.4-2.2 5.3-3.8 7.5-6.1l.1-.1.7-.6c2.2-2.3 3.7-5.8 2.5-8.7-1.1-2.7-4.2-4.4-4.9-7.2-.2-1.3-.3-2.6-.3-3.9-.6-4-4.5-6.5-8-8.5-4.4-2.5-9-5-14.1-5.1-6.9 0-13 4.6-19.8 5.2-2.3.2-4.7-.1-6.9.7-1.7.7-3.2 1.7-4.5 2.9-.8.6-1.5 1.3-2.2 2-1.5 1.4-2.8 3.1-2.8 5.2.1 1.5.8 2.9 1.9 3.9-8.3 11.3-5.9 27.2 5.4 35.5 1.2.9 2.5 1.6 3.8 2.3.1.5.2 1.1.2 1.7 1 7.5 1.6 18.1-1.1 26.5-11.4 5.9-29.1 15.4-32.3 19.7-.5.7-.7 1.6-.4 2.5-.1.4-.1.8-.1 1.2-2.5.6-5.8 0-9.8-3.7-9.6-8.9-39.7-35.1-39.7-35.1s-13.5-33.3-23-27l11.1 37.3 45.1 48.4s1.6 10.3 18.2 4.8c5.5-1.8 10.5-3.6 14.7-5.1l1 .9c-3.8 21.9-5.7 51.2 8.1 59.8 1.1 1.4 1.9 3.1 2.3 4.8l-.2.8c-1.1 4.4-1.7 8.8-2 13.3-2.6 6-3.8 12.4-3.5 18.9l-5.3 75.5s-.8 16.7 4.8 29.3 23 76.1 11.1 80.9l1.1.2c-3.4 3.5-9.2 8.8-13.5 9.9-6.6 1.6-4.8 11.8 9.9 13.5s16.5 1.6 26.8-7.1c9.1-7.6 10.6-11 10.8-11.7l.5.1s-5.5-20.6 0-29.3l-12.7-61.9c-.2-6.8.1-13.6.8-20.3 2.8 7.3 4.8 12.4 4.8 12.4s4.8 23 10.3 27 34.9 58.7 30.1 82.5l-.5 2.8 1.3-.4h.1c-1.8 4.5-5.2 11.7-8.8 14.3-5.5 4 0 12.7 14.3 8.7s15.9-4.8 22.2-16.7l5.6-15.3z" fill="url(#SVGID_1_)"/><path class="st4" d="M779.4 439.6l-3.5-4.3c-3.6 6.6-5.3 14.1-4.9 21.6l-5.2 73.8s-.8 16.3 4.7 28.7 22.5 74.4 10.9 79.1l34.8 4.7s-5.4-20.2 0-28.7L803.8 554s-1.5-43.4 13.2-53.5l-37.6-60.9z"/><path class="st5" d="M785.3 635.6s-9.6 11.2-16 12.7-4.7 11.5 9.7 13.2 16.1 1.5 26.3-6.9l10.6-11.6s-2-7.5-4.4-7.7l-26.2.3z"/><path class="st6" d="M781.8 441.9l-5.8-6.6c-3.6 6.6-5.3 14.1-4.9 21.6l-5.2 73.8s-.8 16.3 4.7 28.7 22.5 74.4 10.9 79.1l34.8 4.7s-5.4-20.2 0-28.7L803.8 554s-1.5-43.4 13.2-53.5l-35.2-58.6z"/><linearGradient id="SVGID_2_" gradientUnits="userSpaceOnUse" x1="557.702" y1="940.419" x2="557.702" y2="454.894" gradientTransform="translate(-111.66 -256.516)"><stop offset="0" stop-color="gray" stop-opacity=".25"/><stop offset=".54" stop-color="gray" stop-opacity=".12"/><stop offset="1" stop-color="gray" stop-opacity=".1"/></linearGradient><path d="M816.3 543.1s-9.7-190.2-49.5-257.5c0 0-29.2-53.3-53.5-68.8v-6.1c-39.8-27.5-88.7 0-88.7 0v2.7l-10.2 8.5-45.9-.2c-4.2-5.1-10.5-8-17-8H341.8c-6.2 0-12.1 2.6-16.3 7.1h-47.7s-2.8-3.3-10.2-6.6v-3.6c-39.8-27.5-88.7 0-88.7 0v7.4c-1.2.8-2.2 1.7-3.1 2.8 0 0-40.3 27-49.5 60.7 0 0-49.5 148.4-50.5 264.7s43.9 132.6 67.3 135.7 65.3-1 106.1-104l17.3-60.2s3.1-35.7 39.8-13.3l69.3-12.2h137.7s45.8 28.5 87.7 6c0 0 16.3-21.4 31.6 51 0 0 46.9 148.9 119.3 133.6l64.4-139.7z" fill="url(#SVGID_2_)"/><path class="st8" d="M184.1 226.1v-11s48-27 87 0v10l-87 1zm437 0v-11s48-27 87 0v10l-87 1z"/><path class="st6" d="M184.1 226.1v-11s48-27 87 0v10l-87 1zm437 0v-11s48-27 87 0v10l-87 1z"/><path class="st8" d="M328.1 225.1h-47s-12-14-52-13l-48 13s-39.5 26.5-48.5 59.5c0 0-48.5 145.5-49.5 259.5s43 130 66 133 64-1 104-102l17-59s3-35 39-13l68-12h135s45 28 86 6c0 0 16-21 31 50 0 0 46 146 117 131l63-137s-9.5-186.5-48.5-252.5c0 0-37.5-68.5-62.5-71.5 0 0-54-10-75-1l-12 10-283-1z"/><circle class="st9" cx="219.1" cy="323.1" r="87"/><circle class="st9" cx="673.1" cy="323.1" r="87"/><path class="st8" d="M234.2 303.7L222.6 314c-2 1.8-5.1 1.8-7.1 0l-11.6-10.3c-1.1-1-1.8-2.5-1.8-4v-28.2c0-3 2.4-5.4 5.4-5.4h23.3c3 0 5.4 2.4 5.4 5.4v28.2c-.1 1.5-.8 3-2 4zm0 38.8l-11.6-10.3c-2-1.8-5.1-1.8-7.1 0l-11.6 10.3c-1.1 1-1.8 2.5-1.8 4v28.2c0 3 2.4 5.4 5.4 5.4h23.3c3 0 5.4-2.4 5.4-5.4v-28.2c-.1-1.5-.8-3-2-4zm-34.5-4.2l10.3-11.6c1.8-2 1.8-5.1 0-7.1L199.7 308c-1-1.1-2.5-1.8-4-1.8h-28.2c-3 0-5.4 2.4-5.4 5.4v23.3c0 3 2.4 5.4 5.4 5.4h28.2c1.5-.2 3-.9 4-2zm38.8 0l-10.2-11.6c-1.8-2-1.8-5.1 0-7.1l10.3-11.6c1-1.1 2.5-1.8 4-1.8h28.2c3 0 5.4 2.4 5.4 5.4v23.3c0 3-2.4 5.4-5.4 5.4h-28.2c-1.6-.2-3.1-.8-4.1-2z"/><path class="st0" d="M204.1 259.1h30l-15-13-15 13zm0 128h30l-15 13-15-13zm-49-79v30l-13-15 13-15zm128 0v30l13-15-13-15z"/><circle class="st9" cx="337.1" cy="418.1" r="63"/><circle class="st8" cx="335.1" cy="408.1" r="42"/><circle class="st9" cx="555.1" cy="418.1" r="63"/><circle class="st8" cx="553.1" cy="408.1" r="42"/><circle class="st10" cx="335.1" cy="408.1" r="28"/><circle class="st10" cx="553.1" cy="408.1" r="28"/><circle class="st9" cx="448.1" cy="425.1" r="18"/><circle class="st9" cx="420.6" cy="365" r="3.9"/><circle class="st9" cx="435.3" cy="365" r="3.9"/><circle class="st9" cx="433.3" cy="383.7" r="3.9"/><circle class="st9" cx="447.1" cy="384.1" r="4"/><circle class="st9" cx="460.8" cy="383.7" r="3.9"/><circle class="st9" cx="427.4" cy="374.8" r="3.9"/><circle class="st9" cx="440.1" cy="375.1" r="4"/><circle class="st9" cx="453.1" cy="375.1" r="4"/><circle class="st9" cx="466.7" cy="374.8" r="3.9"/><circle class="st9" cx="447.1" cy="365.1" r="4"/><circle class="st9" cx="461.1" cy="365.1" r="4"/><circle class="st9" cx="472.6" cy="365" r="3.9"/><path class="st9" d="M298.6 232.1h5c4.7 0 8.5 3.8 8.5 8.5v21c0 4.7-3.8 8.5-8.5 8.5h-5c-4.7 0-8.5-3.8-8.5-8.5v-21c0-4.7 3.8-8.5 8.5-8.5zm292 0h5c4.7 0 8.5 3.8 8.5 8.5v21c0 4.7-3.8 8.5-8.5 8.5h-5c-4.7 0-8.5-3.8-8.5-8.5v-21c0-4.7 3.8-8.5 8.5-8.5z"/><circle class="st8" cx="674.1" cy="270.1" r="24"/><circle class="st8" cx="623.1" cy="321.1" r="24"/><circle class="st8" cx="727.1" cy="318.1" r="24"/><circle class="st8" cx="678.1" cy="371.1" r="24"/><path class="st9" d="M343.8 218.1h205.5c12 0 21.8 9.7 21.8 21.8v89.5c0 12-9.7 21.8-21.8 21.8H343.8c-12 0-21.8-9.7-21.8-21.8v-89.5c.1-12.1 9.8-21.8 21.8-21.8z"/><path class="st11" d="M659.6 280.1l14-24 15 24h-29zm-49 30h25v22h-25v-22z"/><circle class="st11" cx="727.1" cy="318.1" r="14"/><path class="st11" d="M666.6 359.9l22.5 22.5m.5-22.5l-23 22"/><path class="st1" d="M318.9 671.7c3-2.3 5.9-5 6.7-8.3.9-3.6-1.1-7.3-4.7-8.4-4.3-1.3-8.9 1.1-12.4 3.5s-7.5 5.3-12.1 4.8c4.7-3.4 7-9 5.7-14-.2-1.1-.8-2.1-1.6-2.8-2.4-2.1-6.7-1.2-9.6.5-9.1 5.2-11.6 15.3-11.7 24.4-.9-3.3-.1-6.7-.2-10.1s-1.1-7.1-4.6-8.9c-2.2-1-4.6-1.4-7.1-1.3-4.1-.1-8.7.2-11.4 2.7-3.5 3-2.6 8.1.4 11.5 3 3.3 7.6 5.4 11.9 7.8 3.2 1.8 6.5 3.8 8.5 6.6.3.4.5.8.6 1.2H303c5.7-2.6 11-5.6 15.9-9.2z"/><path class="st5" d="M851.2 651.7s-4.7 14-10.1 17.8 0 12.4 14 8.5 15.5-4.7 21.7-16.3l5.4-14.7s-4.7-6.2-7-5.4l-24 10.1z"/><path class="st12" d="M822.5 303.5s-62.8 34.9-48.1 24.8c9.9-6.8 9.3-24.7 7.8-35.8-.5-3.5-1-6.2-1.3-7.8-.2-.9-.3-1.4-.3-1.4s30.5-18.3 28.8-7.3v.3c-.1.7-.2 1.5-.2 2.2-.3 11.4 13.3 25 13.3 25zm-68.3 34.1s-5.4 8.5-14.7 0l-38.8-34.1s-13.2-32.6-22.5-26.4l10.9 36.5 44.2 47.3s1.5 10.1 17.8 4.6l27.9-10.1-24.8-17.8z"/><path class="st4" d="M880.6 644.7l-31 10.9-1.3.4.5-2.7c4.7-23.3-24-76.8-29.5-80.7l-10.1-26.4s-10.2-51.2-11.7-62c-.4-2.7-1.8-4.9-3.5-7.9-2.6-4.5-4.6-9.3-6-14.4-3.4-12-11.4-33.3-8.4-45.4.6-2.5-1.8 3.8-1 1.4l.5-1.3 62.8-8.5c1 1.3 2 2.6 2.9 4 4.8 7 4.4 7 5.4 20.4-.4 8.1-1.6 16.1-3.4 24-8.5 37.6 10.6 88 10.6 88s15.5 35.7 12.4 50.4l10.8 49.8z"/><path class="st6" d="M844.8 412.1c-9.3 11.6-68.8 20.7-68.1 17 .2-1.3.1-2.6-.3-3.8.6-2.5 1.3-4.9 2.1-7.3l.5-1.3 62.8-8.5c1.1 1.2 2.1 2.6 3 3.9z"/><path class="st14" d="M817.8 287.2s-25.6 7.8-32.6 25.6l5.3 18.8s-22 58-16.2 88.2c0 0 3.1 3.9 2.3 7.8s64.4-6.2 69-18.6-21.6-34.9-14.6-55.9l-13.2-65.9z"/><path class="st6" d="M809.3 277.9c0 .2-.1.5-.2.7-1.1 2-4.4-.2-3.3 2.8-4.5 4.5-5.9 13.6-12.8 13.6-3.7 0-7.4-.8-10.8-2.5-.5-3.5-1-6.2-1.3-7.8 3-1.8 27-15.7 28.4-8.7.2.7.1 1.3 0 1.9z"/><circle class="st12" cx="793" cy="268.6" r="24.8"/><path class="st6" d="M817.8 347.7l-43.4 20.2s-29.5-22.5-24.8-28.7l41.1-24s37.2 7.7 27.1 32.5z"/><path class="st14" d="M817.8 346.2l-43.4 20.2s-29.5-22.5-24.8-28.7l41.1-24s37.2 7.6 27.1 32.5z"/><path class="st6" d="M785.9 258c-3.8-.4-7.7-.8-11-2.7-1.9-1.1-3.7-2.9-3.7-5.1-.1-2.6 2.1-4.6 4.1-6.3 1.3-1.2 2.8-2.2 4.5-2.9 2.2-.8 4.5-.5 6.8-.7 6.7-.6 12.7-5.1 19.4-5.1 4.9 0 9.5 2.5 13.8 5 3.4 1.9 7.2 4.4 7.8 8.3 0 1.3.1 2.5.3 3.8.7 2.8 3.7 4.4 4.8 7.1 1.2 2.9-.3 6.3-2.5 8.5s-5 3.8-7.3 6c-4.3 4-6.6 9.5-6.5 15.3.1.4 0 .8-.2 1.1-.3.4-.9.7-1.4.7-2.5.5-5.5.7-7-1.3s-.3-5.4-2-7.5c-2.2-2.6-6.7-.5-9.6-2.2-1-.6-1.7-1.6-2.2-2.6-2.4-5.2.4-9.2 1.4-14.2 1-5.8-5.5-4.8-9.5-5.2z"/><path d="M786.6 257.2c-3.8-.4-7.7-.8-11-2.7-1.9-1.1-3.7-2.9-3.7-5.1-.1-2.6 2.1-4.6 4.1-6.3 1.3-1.2 2.8-2.2 4.5-2.9 2.2-.8 4.5-.5 6.8-.7 6.7-.6 12.7-5.1 19.4-5.1 4.9 0 9.5 2.5 13.8 5 3.4 1.9 7.2 4.4 7.8 8.3 0 1.3.1 2.5.3 3.8.7 2.8 3.7 4.4 4.8 7.1 1.2 2.9-.3 6.3-2.5 8.5s-5 3.8-7.3 6c-4.3 4-6.7 9.6-6.5 15.4.1.4 0 .8-.2 1.1-.3.4-.9.7-1.4.7-2.5.5-5.5.7-7-1.3s-.3-5.4-2-7.5c-2.2-2.6-6.7-.5-9.6-2.2-1-.6-1.7-1.6-2.2-2.6-2.4-5.2.3-9.3 1.3-14.3 1.2-5.8-5.3-4.8-9.4-5.2z" fill="#603456"/></svg>