<svg xmlns="http://www.w3.org/2000/svg" xmlns:xlink="http://www.w3.org/1999/xlink" width="773.9" height="773.9"><style>.st0{fill:#e2e2e2}.st1{fill:#fff}.st2{fill:#ea7d5b}</style><path class="st0" d="M87.5 672.4L182.5.2l590 83.4-95 672.2-590-83.4z"/><path class="st1" d="M97 655.4l91-644.3 576.1 81.4-91 644.3L97 655.4z"/><path id="_x31_5fa7734-96da-431a-a67f-b368dfbdb931" class="st2" d="M146.5 494.8l65.7-464.9 521.7 73.7-65.7 464.9-521.7-73.7z"/><path id="_x36_968f8e0-9aea-4d3d-90e1-4904e891fc16" d="M146.5 494.8l65.7-464.9 521.7 73.7-65.7 464.9-521.7-73.7z" fill="none" stroke="#ea7d5b" stroke-width="5" stroke-miterlimit="10"/><path class="st0" d="M1.4 94.8h595.8v678.9H1.4V94.8z"/><path class="st1" d="M8.3 105h581.8v650.7H8.3V105z"/><linearGradient id="SVGID_1_" gradientUnits="userSpaceOnUse" x1="297.7" y1="358.212" x2="297.7" y2="841.212" gradientTransform="matrix(1 0 0 -1 0 1020.653)"><stop offset="0" stop-color="gray" stop-opacity=".25"/><stop offset=".54" stop-color="gray" stop-opacity=".12"/><stop offset="1" stop-color="gray" stop-opacity=".1"/></linearGradient><path d="M30.9 116.2h533.6v483H30.9v-483z" fill="url(#SVGID_1_)"/><defs><path id="SVGID_2_" d="M30.9 116.2h533.6v483H30.9z"/></defs><clipPath id="SVGID_3_"><use xlink:href="#SVGID_2_" overflow="visible"/></clipPath><g clip-path="url(#SVGID_3_)"><linearGradient id="SVGID_4_" gradientUnits="userSpaceOnUse" x1="486.242" y1="308.536" x2="486.242" y2="687.237" gradientTransform="matrix(1 0 0 -1 -147.54 957.413)"><stop offset="0" stop-color="gray" stop-opacity=".25"/><stop offset=".54" stop-color="gray" stop-opacity=".12"/><stop offset="1" stop-color="gray" stop-opacity=".1"/></linearGradient><path d="M145.7 395.9c17.4 19.2 31.8 43 55 54.2 33.7 16.2 74.8-.1 102.6-25.4s47.3-58.7 73.5-85.7c75.3-77.4 203.3-89.2 297.3-37 13.4 7.5 26.5 16.3 35.9 28.4 12.3 15.9 17.6 36.1 21.6 55.9 8.9 44.3 12.6 89.4 11.1 134.5-1 30.7-6.8 65.4-32.1 82.3-8 5.3-17.2 8.3-26.4 11-135.9 40.1-280 37.3-421.4 31.3-105.4-4.5-212-10.8-312.7-43-4.6-1.5-9.5-3.2-12.5-7.1-3.4-4.4-3.5-10.5-3-16 1.4-18.3 7-35.9 11.2-53.7 8.7-37.1 11.5-75.4 8.3-113.4-2.8-33.7-21.7-62.1 17.3-71.5 61.1-15 132.3 8.8 174.3 55.2z" fill="url(#SVGID_4_)"/></g><path id="_x36_b8b7763-08eb-41e9-84db-926332f3d231" class="st1" d="M34.8 120.2h526.9v469.5H34.8V120.2z"/><path d="M148.2 392c17.2 18.7 31.3 41.8 54.3 52.7 33.3 15.8 73.8-.1 101.3-24.7s46.7-57.1 72.6-83.3c74.4-75.2 200.7-86.7 293.5-36 13.3 7.3 26.1 15.8 35.5 27.6 12.2 15.4 17.4 35.1 21.3 54.3 8.8 43 12.4 86.9 10.9 130.8-1 29.8-6.8 63.6-31.7 80-7.9 5.2-17 8-26 10.7-134.2 39-276.5 36.3-416.1 30.4-104.1-4.4-209.3-10.6-308.7-41.8-4.6-1.4-9.4-3.1-12.4-6.9-3.3-4.3-3.4-10.2-3-15.6 1.4-17.8 6.9-34.9 11.1-52.2 8.6-36.1 11.3-73.3 8.2-110.3-2.8-32.7-21.4-60.4 17.1-69.5 60.3-14.4 130.6 8.7 172.1 53.8z" fill="#bdbdbd"/><circle cx="100.1" cy="185.5" r="38.3" fill="#ff5252"/><path d="M382.7 435.4h18v138.5h-18V435.4z" fill="#ea7d5b" stroke="#ea7d5b" stroke-width="5" stroke-miterlimit="10"/><path class="st2" d="M450.9 429.7l-17-10.5 14.6 2.6-8.3-27.1-20-12.3 17.4 3.6-11.7-38.2-19.6-12 16.8 3-11.3-36.8-19.9-12.3 17.1 3.1-17.3-56.7-12.6 41.6 12.6-4.4L377 285l-9.1 30.2 23.8-5.9-28.1 20-9.8 32.5 25.5-6.3-30 21.4-7.5 25.1 19.5-4.9-23 16.4-13 43.3h133.9l-8.3-27.1zM8.3 671.2h581.8v84.4H8.3v-84.4z"/></svg>