<svg xmlns="http://www.w3.org/2000/svg" width="850.4" height="850.4"><style>.st0{fill:#1aaf8a}.st1{fill:none;stroke:#535461;stroke-width:2;stroke-miterlimit:10}.st4{fill:#535461}.st5{fill:#fff}.st9{fill:#f7c4a7}.st11{fill:#575988}.st12{opacity:.1;enable-background:new}.st13{fill:#f3b5b7}.st14{fill:#dddbe2}</style><path class="st0" d="M785.5 284.1s-35.8 35.8-15.6 89l-34.7 141.6s.6-.1 1.7-.3c73.6-13 110.2-97.2 69.2-159.7-15.2-23.2-27.7-50.4-20.6-70.6z"/><path class="st1" d="M785.5 284.1s-20.2 43.9 0 79.8 3.5 136.4-50.3 150.8"/><path class="st0" d="M849.3 429.1s-40.9-6.5-44.6 30.1l-78.6 41.7 1.4.9c61.8 40.6 121 25.9 112-28-3.3-20-3-40.2 9.8-44.7z"/><path d="M849.3 429.1s-40.9-6.5-44.6 30.1l-78.6 41.7 1.4.9c61.8 40.6 121 25.9 112-28-3.3-20-3-40.2 9.8-44.7z" opacity=".2" fill="#f5f5f5"/><path class="st1" d="M849.3 429.1s-31.7 7-29.1 35.8c2.6 28.8-47.1 63.5-94.1 36"/><linearGradient id="SVGID_1_" gradientUnits="userSpaceOnUse" x1="503.301" y1="977.586" x2="503.301" y2="611.786" gradientTransform="translate(-82 -418.186)"><stop offset="0" stop-color="gray" stop-opacity=".25"/><stop offset=".54" stop-color="gray" stop-opacity=".12"/><stop offset="1" stop-color="gray" stop-opacity=".1"/></linearGradient><path d="M754.7 517.2h-64.2c1.5-3 2.2-6.2 2.2-9.6V215.1c0-11.9-9.6-21.5-21.5-21.5H173.8c-11.9 0-21.5 9.6-21.5 21.5v292.6c0 3.3.8 6.6 2.2 9.6H88c-3.1 0-5.7 2.5-5.7 5.7v4.6c0 17.6 14.3 31.8 31.8 31.8h614.4c17.6 0 31.8-14.2 31.8-31.8V523c.1-3.3-2.5-5.8-5.6-5.8zm-395.9 18.2l-5.5-6.3H490l-6.1 6.3H358.8z" fill="url(#SVGID_1_)"/><path class="st4" d="M181.7 197.7h481.6c12.8 0 23.3 10.4 23.3 23.3v281.5c0 12.8-10.4 23.3-23.3 23.3H181.7c-12.8 0-23.3-10.4-23.3-23.3V220.9c0-12.8 10.4-23.2 23.3-23.2z"/><path class="st5" d="M169.5 245.5h504.8v268H169.5v-268z"/><circle class="st5" cx="421.9" cy="222.1" r="4.5"/><path class="st4" d="M499.9 514l-17.3 17.8H360.2L344.5 514H95.6c-3.1 0-5.6 2.5-5.6 5.6v4.5c0 17.2 13.9 31.1 31.1 31.1h600.5c17.2 0 31.1-13.9 31.1-31.1v-4.5c0-3.1-2.5-5.6-5.6-5.6H499.9z"/><linearGradient id="SVGID_2_" gradientUnits="userSpaceOnUse" x1="302.25" y1="1007.086" x2="302.25" y2="673.086" gradientTransform="translate(-82 -418.186)"><stop offset="0" stop-color="gray" stop-opacity=".25"/><stop offset=".54" stop-color="gray" stop-opacity=".12"/><stop offset="1" stop-color="gray" stop-opacity=".1"/></linearGradient><path d="M326.7 254.9H113.8c-10.8 0-19.5 8.7-19.5 19.5v295c0 10.8 8.8 19.5 19.5 19.5h212.9c10.8 0 19.5-8.7 19.5-19.5v-295c0-10.8-8.7-19.5-19.5-19.5z" fill="url(#SVGID_2_)"/><path class="st4" d="M117.2 258.9h206c11 0 20 9 20 20v287c0 11-9 20-20 20h-206c-11 0-20-9-20-20v-287c0-11 9-20 20-20z"/><path class="st5" d="M109.7 289.8h221v265.1h-221V289.8z"/><circle class="st5" cx="219.2" cy="273.9" r="3"/><circle class="st5" cx="219.2" cy="569.9" r="9"/><linearGradient id="SVGID_3_" gradientUnits="userSpaceOnUse" x1="191.75" y1="1034.086" x2="191.75" y2="773.086" gradientTransform="translate(-82 -418.186)"><stop offset="0" stop-color="gray" stop-opacity=".25"/><stop offset=".54" stop-color="gray" stop-opacity=".12"/><stop offset="1" stop-color="gray" stop-opacity=".1"/></linearGradient><path d="M164.4 354.9H55.1c-6 0-10.8 4.8-10.8 10.8v239.4c0 6 4.9 10.8 10.8 10.8h109.3c6 0 10.8-4.8 10.8-10.8V365.7c0-6-4.8-10.8-10.8-10.8z" fill="url(#SVGID_3_)"/><path class="st4" d="M56.2 356.9h107c6.1 0 11 4.9 11 11v236c0 6.1-4.9 11-11 11h-107c-6.1 0-11-4.9-11-11v-236c0-6.1 5-11 11-11z"/><path class="st5" d="M54.7 380.9h110v210h-110v-210z"/><circle class="st5" cx="96.7" cy="368.9" r="1"/><path class="st5" d="M102.7 367.9h20c.6 0 1 .4 1 1s-.4 1-1 1h-20c-.6 0-1-.4-1-1 0-.5.5-1 1-1z"/><circle class="st5" cx="109.2" cy="600.9" r="7"/><path class="st1" d="M32 633.5s-13.3-45 2.5-78.1c6.7-13.9 8.7-29.5 5.8-44.6-1.5-7.2-3.6-14.2-6.3-20.9"/><path class="st0" d="M43.8 468.9c0 5.5-10 21.5-10 21.5s-10-16-10-21.5 4.5-10 10-10 10 4.5 10 10zm16.5 30.6c-3 4.6-20.1 12.6-20.1 12.6s.3-18.9 3.3-23.5c2.8-4.8 8.9-6.4 13.7-3.6s6.4 8.9 3.6 13.7l-.5.8zm-.8 52.2c-4.9 2.5-23.7.8-23.7.8s9.8-16.1 14.7-18.6c5-2.3 11 0 13.2 5 2.2 4.7.4 10.2-4.2 12.8zm-9.4 39.4c-4.4 3.3-23.2 4.8-23.2 4.8s6.9-17.5 11.4-20.8c4.6-3.1 10.8-1.8 13.9 2.8 2.8 4.1 1.9 9.9-2.1 13.2zm-30.9-77.9c4 3.8 22.4 7.8 22.4 7.8s-4.5-18.3-8.5-22.2c-3.8-4-10.1-4.2-14.1-.5s-4.2 10.1-.5 14.1c.3.3.5.6.7.8zM8.8 559.4c4.9 2.5 23.7.8 23.7.8s-9.8-16.1-14.7-18.6c-4.8-2.7-10.9-1-13.6 3.8S3.2 556.3 8 559c.2.1.5.3.8.4zm-4 46.3c4.4 3.3 23.2 4.8 23.2 4.8s-6.9-17.5-11.4-20.8c-4.6-3.1-10.8-1.8-13.9 2.8-2.8 4.1-1.9 9.9 2.1 13.2z"/><linearGradient id="SVGID_4_" gradientUnits="userSpaceOnUse" x1="677.937" y1="1074.848" x2="677.937" y2="756.958" gradientTransform="translate(-82 -418.186)"><stop offset="0" stop-color="gray" stop-opacity=".25"/><stop offset=".54" stop-color="gray" stop-opacity=".12"/><stop offset="1" stop-color="gray" stop-opacity=".1"/></linearGradient><path d="M823.3 490.4c-11.1-13.4-24.5-28.9-22.6-46.7 1.5-14.5-2.1-27.9-1.4-42.4 1-20.6-3.1-36.8-18-50-8.7-7.7-23.2-13.8-27.5-12.3-8.6 3.1-17.9 1.9-26.7 4-6.7 1.6-11.1 4-13.9 7-5.5 5-5.6 12-3.1 19.5-8.7 15.9-2.8 35.9 13.1 44.6 1 .6 2.1 1.1 3.1 1.5-6.2 2.6-11.5 8.5-13.6 20.6-1.4 8.3-3.6 16.4-6.5 24.3-1.3.6-2.6 1.1-4 1.6l.9.3c-.7.3-1.3.5-2 .7 1.2.5 2.4.8 3.7 1.1-8 20.2-18 32.7-18 32.7s-18.7 4.1-25.9-3.1c0 0 1.2 1.4 2.8 3.5-7.1-2.9-18.7-7.7-28.7-11.7-7.2-2.9-9.1 0-9 4-1.8.2-3.5.8-5 1.7-2.1-1.4-4.4-2.6-6.7-3.6-4.1-1-17.6-8.2-31.1 16.5-7.8 14.4-27.9 40.6-43.4 60-30 13.8-69.2 31.3-83.7 35.7h-9.3c-1.2-2-2.1-3.3-2.1-3.3l-.7.4-.3-.5s-18.3 12.7-36.9 12.8c-2.6 0-5.3-.4-7.8-1-8.5-2.2-14.6-3.1-18.9-3-5.1-.1-8 1.1-9.8 3.4l-.7.9c-.2.3-.4.7-.5 1l-.5 1.1c-.1.7.1 1.4.6 2 .2.3.5.7.8 1l.5.6c2.3 2.4 6.6 5.6 11.9 9.2 1.5 1 3.2 2.1 4.8 3.2l3.2 2 2.9 1.8 1.2.7 1.3.8 2.3 1.4 1.4.8 2.6 1.5 2.1 1.2c5.4 3.2 10.9 6.3 15.8 9.1l3.4 2 .3.2 2.2 1.2 3.8 2.1 2.6 1.4 1.2.7 1.3.7.3.1 2.3 1.2c.9.2 1.9-.1 2.7-.7.7-2.8 2.3-8.8 4-9.3s9.2-13.5 11.3-22.3h20.2c4-.3 7.9-.9 11.8-1.8-5.2 3.7-10.4 6.1-14.4 5.1-8.5-2.1-16.5 3.1-17.4 8.2l-.1.3s0 .2-.1.3-.1.3-.1.4v1.7s.1.3.1.4 0 .2.1.3c.1.2.1.4.2.5v.1c.1.2.2.4.4.6l.2.2.3.4.2.2c.1.1.3.2.4.4l.3.2.5.3.3.2.5.3.4.2.7.3.3.2c.4.2.7.3 1.2.4.7.2 1.4.4 2.3.7l.9.2 1.3.3.7.2c.9.2 1.8.4 2.8.6l1.3.3 1.1.2 2.5.4c1.6.3 3.2.5 5 .8l4.4.7 5.7.8 1.3.2 2 .3 2.9.4 2 .3 5.2.7 1.6.2 3.3.4c4.3.5 8.5 1 12.3 1.4l4.4.5 2.2.3 1 .1 2.7.3 1.5.2 1.8.2 2.6.3h.3l1.7.2c.8.1 1.6-.5 1.7-1.3v-.3c.2-.2.2-.5.2-.8 0-2.5.4-4.9.9-7.3.1-.4.2-.8.4-1.3l.2-.5.6-1.5c.2-.4.3-.8.4-1.1 0-.1.1-.2.1-.4s.1-.4.1-.6c2.1-7.1-.4-20.4-1.2-25.6-.2-1.7-.6-3.3-1.1-4.9h.4c1.1-.4 2.1-.9 3-1.6 15.3-5.5 28.2-11.7 32.2-17.9 6.6-1.7 13.6-1 19.7 2.1 7.9 3.9 67.8 23.5 95.6 32.5 5 4.3 8.9 6.8 11.1 6.6 0 0 35.5 5.7 49.7-5.5 1.3.9 2.1 1.3 2.1 1.3s20.7-10.3 23.8-23.7c1-4.3 1.9-10.7 2.8-17.8 4.8-4.8 7.5-11.4 7.5-18.2.7-22.5 9.4-48.2 15.8-71 7.8.6 10.9-.9 18.1-4.4l-.3-.4c.4-.5.9-.7 1.3-.9zM704.5 524l-4-1.3c1.3-1.8 2.5-3.7 3.5-5.7l.5 7zm-22.3 9.5l24 14.4.2 2.9c-.3 2.2-.2 4.5.2 6.7-10.5-9.4-22.9-20.8-24.4-24zm-9.8-21c-2.6-1.1-4.8-2.1-6.3-2.9 2 .1 3.9.3 5.6.3.3.9.6 1.7.7 2.6zM608.1 536s4.1-9.3 13.5 6.2c1.5 2.4 4.1 6.2 7.7 11l-27.2-3.6c3.2-5.1 5.4-9.7 6-13.6z" fill="url(#SVGID_4_)"/><path class="st9" d="M667.8 498.8s-19-8-34-14l-6 14s25 7 25 8l21 2-6-10z"/><path d="M667.8 498.8s-19-8-34-14l-6 14s25 7 25 8l21 2-6-10z" opacity=".05"/><path class="st11" d="M748.8 419.8s-34-18-40 17l-25 59s-18 4-25-3c0 0 17 20 9 22 0 0 18 13 26 9s14-31 17-38 14-68 38-66z"/><path class="st12" d="M748.8 419.8s-34-18-40 17l-25 59s-18 4-25-3c0 0 17 20 9 22 0 0 18 13 26 9s14-31 17-38 14-68 38-66z"/><path class="st9" d="M729.8 407.8s21 24 22 44 24-21 26-22-20-35-22-46l-26 24zm14.5 10.2l-13.2 12 6.2 25.3 17-16-2-16-8-5.3zM467.8 595.8h-23l9 22 22-6-8-16z"/><path class="st12" d="M450.1 592.6s-23.8 16.6-44.2 11.4-25.9-3.2-28.3 3.4c-2.2 6.1 56.8 38.5 66.3 43.7.5.3 1.2.1 1.5-.4l.1-.3c.6-2.7 2.2-8.5 3.8-9 2.2-.6 12-19 11.5-26.2l-10.7-22.6z"/><path class="st13" d="M449.1 592.6s-23.8 16.6-44.2 11.4-25.9-3.2-28.3 3.4c-2.2 6.1 56.8 38.5 66.3 43.7.5.3 1.2.1 1.5-.4l.1-.3c.6-2.7 2.2-8.5 3.8-9 2.2-.6 12-19 11.5-26.2l-10.7-22.6z"/><path class="st11" d="M645.8 552.8l-67-9s-109 52-122 53l3 23h20c8 0 86-17 97-34 6.4-1.7 13.1-1 19 2 10 5 106 36 106 36l-56-71z"/><path class="st12" d="M645.8 552.8l-67-9s-109 52-122 53l3 23h20c8 0 86-17 97-34 6.4-1.7 13.1-1 19 2 10 5 106 36 106 36l-56-71z"/><path class="st9" d="M526.8 583.8l-11 14 11 6 16-12-16-8z"/><path class="st11" d="M717.8 567.8s-36-30.8-38.5-36.4-61.5-43.6-65.5-44.6-17-8-30 16-61 82-61 82 15 21 20 20 61-48 65-71c0 0 4-9 13 6s67 87 78 86c0 0 43 7 52-10l-33-48z"/><path class="st14" d="M738.3 421.3s-12.5 5.5-13.5 28.5l-23 62 2 46s24 24 26 39l19 25s20-10 23-23 5-45 10-57l2-87-15-26-8-9-21 24s-11.5-15.5-1.5-22.5z"/><path class="st12" d="M708.8 542.8s-3-36 6-44l18-51s6.5-24.5 5.5-26.5l-23.5 19.5-15 53 4 56 5-7z"/><path class="st11" d="M707.8 542.8s-3-36 6-44l18-51s7-25 6-27l-24 20-15 53 4 56 5-7z"/><path class="st9" d="M714.8 526.8s-50-16-53-20-35-30-46-12l41 23 53 32 5-23z"/><path class="st12" d="M529 597.7l-14.8-2.7s-24.2 31-36.9 27.9-24.3 10.4-10.9 14.8c12 3.9 64.1 9.5 74 10.5.8.1 1.5-.5 1.6-1.3v-.1c.1-3.9.9-7.7 2.3-11.3 2.7-6.5 0-20.6-.7-26-.4-3.2-1.4-6.2-2.9-9l-11.7-2.8z"/><path class="st13" d="M528.7 598.6l-14.8-2.7s-24.2 31-36.8 27.9-24.3 10.4-10.9 14.8c12 3.9 64.1 9.5 74 10.5.8.1 1.5-.5 1.6-1.3v-.1c0-3.9.8-7.7 2.2-11.3 2.7-6.5 0-20.6-.7-26-.4-3.2-1.4-6.2-2.9-9l-11.7-2.8z"/><circle class="st12" cx="737.3" cy="387.3" r="32"/><circle class="st9" cx="734.3" cy="387.3" r="32"/><path class="st11" d="M765.8 418.8s38 13 38 40-21 70-22 105l-56 30s-8-118 0-127 44-44 40-48z"/><path class="st12" d="M758.8 474.8s-14 62-47 51c0 0-17 25-5 36 0 0 29 7 48-12s33-26 36-49 5-55-5-52l-27 26z"/><path class="st11" d="M759.8 473.8s-14 62-47 51c0 0-17 25-5 36 0 0 29 7 48-12s33-26 36-49 5-55-5-52l-27 26z"/><path class="st14" d="M544.8 633.3l-.1.3c-.7 1.7-1.2 3.5-1.6 5.3.2-.8.5-1.6.8-2.4.5-1.1.8-2.1.9-3.2zm-77.9 2.5c-4.1-1.3-5.8-3.6-5.9-5.9-1.7 3.3-.6 6.9 5.2 8.8 12 3.9 64.1 9.5 74 10.5.8.1 1.5-.5 1.6-1.3v-.1c0-.8-.6-1.4-1.3-1.5-10.9-1.2-61.7-6.6-73.6-10.5zm-88.8-30.1c.3-.7.6-1.4 1-2.1-1.1 1.1-1.9 2.4-2.3 3.9-2.2 6.1 56.8 38.5 66.3 43.7.5.3 1.2.1 1.5-.4l.1-.3c.1-.5-.1-1-.5-1.2-10.6-5.8-68.3-37.5-66.1-43.6zm71.6 34c-.5.1-1 .8-1.5 1.8l.2-.1c.4-.1 1.2-1 2.1-2.3-.2.3-.5.5-.8.6z"/><path class="st12" d="M729.9 415.4c-2.8 6.2-3.4 13.2-5.5 19.8-4.1 12.9-14.4 23.6-26.8 27.8 10.4 4.1 22.7-.9 30.7-9.3s12.7-19.6 17.3-30.5c11.7 7.8 10.2 25.9 14.2 39.9 3.4 12.4 12 22.6 23.5 28.2 11.5 5.2 24.8 4.9 36.1-.7-10.7-13-25.9-30.9-24.1-48.3 1.5-14.1-8.6-24.8-7.9-38.9 1-20-6.7-30.2-21-43-8.4-7.5 4.8-18.1-6-15-4.3 1.2-8.7-3.3-12.9-1.8-8.3 3-17.3 1.8-25.8 3.8-44.3 10.3 12.3 59 8.2 68z"/><path d="M730.9 414.4c-2.8 6.2-3.4 13.2-5.5 19.8-4.1 12.9-14.4 23.6-26.8 27.8 10.4 4.1 22.7-.9 30.7-9.3s12.7-19.6 17.3-30.5c11.7 7.8 10.2 25.9 14.2 39.9 3.4 12.4 12 22.6 23.5 28.2 11.5 5.2 24.8 4.9 36.1-.7-10.7-13-24.9-27.9-23.1-45.3 1.5-14.1-.7-28.5 0-42.6 1-20-8.8-39.3-23.2-52.2-8.4-7.5-21.5-8.5-25.7-7-8.3 3-17.3 1.8-25.8 3.8-44.2 10.4 12.4 59.1 8.3 68.1z" fill="#fc6681"/></svg>