<svg xmlns="http://www.w3.org/2000/svg" width="756.9" height="756.9"><style>.st5{fill:#036cdf}.st6{fill:#ffb9b9}.st7{fill:#575a89}.st8{opacity:.1;enable-background:new}</style><path d="M380.1-.1l-269.7 166s0 342.3 269.7 529c269.7-186.7 269.7-529 269.7-529L380.1-.1z" fill="#3f3d56"/><path d="M381.7-.1l-4.6 2.8v688.9c1.5 1.1 3.1 2.2 4.6 3.2 269.7-186.7 269.7-529 269.7-529L381.7-.1z" opacity=".04" fill="#036cdf"/><g opacity=".7"><linearGradient id="SVGID_1_" gradientUnits="userSpaceOnUse" x1="293.6" y1="692.954" x2="454.1" y2="692.954" gradientTransform="translate(0 -334.404)"><stop offset="0" stop-color="gray" stop-opacity=".25"/><stop offset=".535" stop-color="gray" stop-opacity=".12"/><stop offset="1" stop-color="gray" stop-opacity=".1"/></linearGradient><path d="M314.8 336.2l50.9 46.6 63-90.9 25.4 21.2-88.4 112.1-72.1-80.5 21.2-8.5z" fill="url(#SVGID_1_)"/></g><path d="M326.8 339l41.3 37.8 58.4-85.9 20.6 17.2-79 103.1-58.5-65.3 17.2-6.9z" fill="#3ad29f"/><path class="st5" d="M538.1 229.3l22.2-.9 1.1 28.6-22.2.9-1.1-28.6z"/><path class="st6" d="M460.1 328.5s-30.8-14.7-30.3-2l31 21.1-.7-19.1z"/><path class="st5" d="M477 436s-14.5 35.5-19.9 61.2c-5.4 25.6-13.5 60.9-3 86s40.4 98.6 40.7 106.5-2.6 16 3.8 15.8 40.9-11.1 42.3-16l-11.8-17-32.6-102.1 34-66.5 24.5 99.2 4.8 123.8s23.6-7.3 27-1c0 0 10.6-14.7 11.9-21.1l-5-128.6s21.6-139.2 4.2-138.5-85.8-41.2-120.9-1.7z"/><path class="st7" d="M498.4 699.1s-16.1 35.6-17.6 37.3-12 18-4.1 17.6 26.7-9 40.5-22.2c13.8-13.3 32-36.2 30.3-37.7l-12.9-5.9-36.2 10.9zm64.3 19.7s-1 15.9-3.9 22.4-2.6 16 5.4 15.7l28.5-4.3s1.2-9.6-.4-11.1-8.7-18.7-5.7-23.6l-23.9.9z"/><path class="st6" d="M574.5 201.7s16.9 26.4 23.5 32.5l-12 19.5-33.2 4.5s.4-30.2-1.3-33.3l23-23.2z"/><path class="st5" d="M545.6 236.2s6.8 12.5 13.2 12.2 39.2-14.2 40.6-19.1l10.9 34.6-80.4 141.4-19.6-13.5 9.5-83 7.8-44.8 18-27.8z"/><path class="st7" d="M602.3 362.7c-3.2 6.7-5.2 13.7-4.9 20.9 0 .3 0 .6.1 1 .8 14.7 6.2 31.7 8.1 44 1.4 8.9 1 15.3-4.2 16.9-12.6 3.7 1.8 6.3-46.8 22.5s-57.2 2.2-57.3-1 6.9-27.3 5.2-28.8-23.1 20-29.5 17l-.7-19.1s14.6-34 14.3-41.9l22.1-45.4 15.2-99.2s5.9-12.9 13.7-14.8l14.4 2.6-13.2 29.1-13.9 51.5 2.3 19s16.2-34 26.8-47.1l33.3-44.2s5.3-17.8 1.3-23.2c-4-5.3 16.6-6.1 25.4 15.8 4.7 11.6 12.2 28.9 17 45.1 4.2 14.3 6.2 27.6 2 35.3-6.3 11.6-22.4 26.9-30.7 44z"/><path class="st8" d="M633.1 318.6c-6.4 11.7-22.5 27-30.7 44.1-2.1-7.7-4.8-15.7-4.8-15.7s-10-53.7 19.6-67.5c4.9-.5 9.8.9 13.8 3.9 4.2 14.2 6.2 27.6 2.1 35.2z"/><path class="st7" d="M515.3 315.2l-25.2 7.3-34.9 1.4-3.6 30.3 57.4 4.1c0 .1 14.3-40.2 6.3-43.1z"/><path class="st6" d="M556.3 417.3s-33.7 5.6-26 15.7l37.5-.5-11.5-15.2z"/><path class="st8" d="M597.5 384.6c.8 14.7 6.2 31.7 8.1 44-10.7 10.1-20.9 19.1-24.8 19.2-7.9.3-20.7-.8-25.4 1l-7.5-28.3s2.8-9.6 15.3-14.9c8.5-3.6 24.7-13.2 34.3-21z"/><path class="st7" d="M616.9 270s26.9-4.2 25.4 40.4 2.8 73-8 81.4-45.9 46.3-53.8 46.6-20.7-.8-25.4 1l-7.5-28.3s2.8-9.6 15.3-14.9 42-23.9 41.8-30.2l-7.5-28.3s-10-53.9 19.7-67.7z"/><circle class="st6" cx="550.8" cy="205.8" r="35"/><path d="M527.2 155.7c-.8.7-1.9 1.2-2.9 1.5-1.1.2-2.2-.5-2.4-1.7-.8 1.7-1.7 3.4-3.3 4.3s-4.2.1-4.4-1.7c-.2 1.4-.9 2.7-1.8 3.7-1 1-2.8 1.2-3.7.1.7 3.9.3 7.9.5 11.9s1.3 8.2 4.3 10.8c4.4 3.8 10.9 2.9 16.7 2.1.9-.2 1.8-.1 2.6.1 2.2.9 2.1 3.9 2.1 6.3.4 8.5 6.8 15.5 15.2 16.5 2.3.4 4.6-.2 6.5-1.6 1.6-1.4 2.5-3.6 4.3-4.7 3-1.7 6.7.8 9 3.5s4.4 6 7.9 6.5c4.6.6 8-4 9.7-8.3 4.7-12.1 4.4-25.6-1-37.5-9.6-20.7-42.1-24-59.3-11.8z" fill="#2f2e41"/></svg>